<svg width="100" height="100" viewBox="0 0 100 100" fill="none" xmlns="http://www.w3.org/2000/svg">
<path d="M47.8097 77.3835C47.2574 77.3835 46.8097 76.9358 46.8097 76.3835V45.6562C46.8097 45.1039 47.2574 44.6562 47.8097 44.6562H52.1804C52.7327 44.6562 53.1804 45.1039 53.1804 45.6562V76.3835C53.1804 76.9358 52.7327 77.3835 52.1804 77.3835H47.8097ZM50.027 39.6065C48.919 39.6065 47.9673 39.2372 47.1719 38.4986C46.3906 37.7457 46 36.8509 46 35.8139C46 34.7628 46.3906 33.8679 47.1719 33.1293C47.9673 32.3764 48.919 32 50.027 32C51.1349 32 52.0795 32.3764 52.8608 33.1293C53.6562 33.8679 54.054 34.7628 54.054 35.8139C54.054 36.8509 53.6562 37.7457 52.8608 38.4986C52.0795 39.2372 51.1349 39.6065 50.027 39.6065Z" fill="#FF6464"/>
<path d="M91.8498 82.5L52.59 14.5C51.4353 12.5 48.5485 12.5 47.3938 14.5L8.13398 82.5C6.97928 84.5 8.42263 87 10.732 87H89.2518C91.5612 87 93.0045 84.5 91.8498 82.5Z" stroke="#FF6464" stroke-width="4"/>
</svg>
