<svg width="100" height="100" viewBox="0 0 100 100" fill="none" xmlns="http://www.w3.org/2000/svg">
<circle cx="50" cy="50" r="46" stroke="#6469FF" stroke-width="4"/>
<path d="M47.8097 72.3835C47.2574 72.3835 46.8097 71.9358 46.8097 71.3835V40.6562C46.8097 40.1039 47.2574 39.6562 47.8097 39.6562H52.1804C52.7327 39.6562 53.1804 40.1039 53.1804 40.6562V71.3835C53.1804 71.9358 52.7327 72.3835 52.1804 72.3835H47.8097ZM50.027 34.6065C48.919 34.6065 47.9673 34.2372 47.1719 33.4986C46.3906 32.7457 46 31.8509 46 30.8139C46 29.7628 46.3906 28.8679 47.1719 28.1293C47.9673 27.3764 48.919 27 50.027 27C51.1349 27 52.0795 27.3764 52.8608 28.1293C53.6562 28.8679 54.054 29.7628 54.054 30.8139C54.054 31.8509 53.6562 32.7457 52.8608 33.4986C52.0795 34.2372 51.1349 34.6065 50.027 34.6065Z" fill="#6469FF"/>
</svg>
